<?xml version="1.0" standalone="no"?>
<!DOCTYPE svg PUBLIC "-//W3C//DTD SVG 20010904//EN"
 "http://www.w3.org/TR/2001/REC-SVG-20010904/DTD/svg10.dtd">
<svg version="1.0" xmlns="http://www.w3.org/2000/svg"
 width="224.000000pt" height="120.000000pt" viewBox="0 0 224.000000 120.000000"
 preserveAspectRatio="xMidYMid meet">

<g transform="translate(0.000000,120.000000) scale(0.100000,-0.100000)"
fill="#000000" stroke="none">
<path d="M1755 1064 c-87 -7 -303 -35 -332 -44 l-28 -8 29 -1 c24 -1 27 -4 23
-23 -22 -91 -58 -300 -53 -305 7 -7 249 26 265 37 7 4 24 72 39 151 32 166 26
160 144 139 84 -15 129 -44 145 -93 32 -96 -48 -162 -252 -206 -263 -58 -1453
-211 -1636 -211 -93 0 -24 -10 135 -19 93 -6 171 -13 173 -15 3 -3 -7 -72 -23
-155 -15 -83 -26 -153 -23 -155 10 -10 250 -9 260 1 5 5 22 77 37 159 l27 149
83 3 c97 3 92 20 57 -173 -14 -75 -23 -140 -20 -143 9 -9 256 -6 264 4 4 5 21
77 36 159 15 83 31 153 34 157 8 9 201 26 206 18 2 -4 -9 -74 -25 -155 -43
-216 -54 -195 100 -195 126 0 131 1 139 23 4 12 21 97 36 189 22 128 32 169
44 172 9 3 53 12 99 21 95 19 227 62 292 95 150 76 208 195 148 301 -25 44
-93 92 -153 107 -47 12 -199 21 -270 16z"/>
<path d="M1035 993 c-38 -2 -73 -7 -77 -11 -8 -8 -80 -363 -75 -368 4 -4 276
32 281 37 10 9 58 319 53 333 -7 17 -15 17 -182 9z"/>
<path d="M588 971 c-42 -3 -79 -8 -81 -11 -5 -5 -77 -378 -77 -398 0 -7 267
21 274 29 7 9 74 374 70 381 -6 9 -64 8 -186 -1z"/>
</g>
</svg>
