<?xml version="1.0" standalone="no"?>
<!DOCTYPE svg PUBLIC "-//W3C//DTD SVG 20010904//EN"
 "http://www.w3.org/TR/2001/REC-SVG-20010904/DTD/svg10.dtd">
<svg version="1.0" xmlns="http://www.w3.org/2000/svg"
 width="506.000000pt" height="493.000000pt" viewBox="0 0 506.000000 493.000000"
 preserveAspectRatio="xMidYMid meet">

<g transform="translate(0.000000,493.000000) scale(0.100000,-0.100000)"
fill="#000000" stroke="none">
<path d="M2243 4900 c-161 -19 -253 -37 -395 -76 -816 -226 -1473 -854 -1722
-1644 -42 -136 -44 -140 -65 -250 -39 -203 -45 -267 -46 -470 0 -217 11 -327
52 -519 35 -165 130 -451 150 -451 21 0 273 147 428 249 343 227 668 548 874
864 39 61 61 81 61 58 0 -24 -43 -216 -66 -291 -83 -279 -198 -506 -381 -753
-102 -137 -376 -409 -526 -521 -64 -48 -117 -90 -117 -92 0 -11 148 -183 224
-262 45 -46 118 -115 164 -154 l82 -70 86 78 c434 394 732 918 889 1564 49
202 43 186 58 171 21 -21 16 -579 -6 -721 -50 -318 -131 -569 -274 -854 -72
-143 -199 -348 -277 -446 -20 -25 -36 -50 -36 -56 0 -22 216 -112 405 -169
121 -37 284 -72 374 -81 l58 -7 7 44 c3 24 11 98 16 164 6 66 12 134 15 150 3
17 12 104 21 195 19 197 38 393 59 590 8 80 22 215 30 300 17 182 37 373 65
635 11 105 25 242 30 305 5 63 14 153 19 200 6 47 13 111 16 143 4 31 10 57
14 57 3 0 15 -73 25 -162 9 -90 24 -212 31 -273 23 -184 44 -359 71 -590 14
-121 32 -274 40 -340 8 -66 21 -178 29 -250 8 -71 22 -186 30 -255 8 -69 22
-183 30 -255 8 -71 22 -186 30 -255 8 -69 22 -186 30 -259 9 -74 17 -137 19
-138 14 -15 375 70 518 121 106 38 288 115 288 123 0 2 -27 41 -59 86 -288
397 -469 838 -538 1307 -14 98 -18 181 -17 380 1 140 6 275 11 300 l10 45 11
-40 c6 -22 21 -80 32 -130 145 -615 423 -1128 827 -1533 79 -78 147 -142 151
-142 15 0 153 123 254 226 91 93 217 241 218 256 0 3 -35 32 -77 64 -521 392
-850 890 -973 1473 -22 102 -25 134 -11 129 5 -1 40 -50 79 -108 39 -58 101
-143 138 -190 93 -116 358 -379 474 -471 166 -132 393 -281 582 -382 80 -42
69 -51 127 107 110 297 163 656 141 961 -40 551 -214 992 -561 1420 -86 106
-301 311 -421 401 -311 233 -658 388 -1038 463 -263 52 -524 62 -787 31z m328
-382 c19 -40 39 -76 44 -80 6 -4 47 -8 93 -8 45 0 82 -3 82 -6 0 -4 -27 -37
-60 -74 -66 -75 -68 -82 -46 -185 7 -33 11 -63 9 -67 -2 -5 -39 10 -82 32 -43
22 -81 40 -86 40 -5 0 -44 -16 -87 -37 -43 -20 -80 -34 -83 -32 -2 3 2 32 10
64 24 99 21 111 -39 180 -77 87 -77 89 19 87 44 -2 85 1 91 5 6 4 28 41 48 81
20 39 40 72 44 72 5 0 24 -33 43 -72z m975 -741 c19 -39 40 -75 47 -79 6 -3
44 -10 84 -14 40 -3 76 -11 80 -17 3 -6 -21 -37 -55 -69 -68 -63 -69 -67 -48
-168 8 -36 12 -67 10 -69 -2 -2 -40 15 -84 38 l-81 42 -81 -41 c-44 -23 -82
-39 -85 -36 -5 5 10 106 23 152 4 16 -9 35 -60 84 -36 34 -63 66 -61 70 3 4
35 11 72 15 101 11 109 16 150 99 20 41 41 73 45 70 5 -3 24 -38 44 -77z
m-1951 -1 c19 -40 41 -76 49 -79 8 -3 46 -9 85 -13 39 -3 74 -11 78 -17 4 -6
-22 -37 -57 -69 l-64 -59 13 -67 c7 -37 14 -77 17 -89 2 -13 1 -23 -3 -23 -4
0 -42 18 -85 40 l-77 41 -82 -41 c-44 -23 -84 -39 -87 -36 -3 3 0 30 6 58 26
125 30 109 -43 178 -36 35 -65 66 -65 70 0 3 38 11 85 17 47 7 89 15 95 18 6
4 26 38 45 76 20 38 40 69 45 69 6 0 26 -33 45 -74z"/>
</g>
</svg>
