<svg id="svg" fill="#000000" stroke="#000000" width="200px" height="200px" version="1.1" viewBox="144 144 512 512" xmlns="http://www.w3.org/2000/svg">
    <g id="IconSvg_bgCarrier" stroke-width="0"></g>
    <g id="IconSvg_tracerCarrier" stroke-linecap="round" stroke-linejoin="round" stroke="#CCCCCC"></g>
     <g id="IconSvg_iconCarrier">
      <g xmlns="http://www.w3.org/2000/svg">
  <path d="m617.3 402.15-51.879-18.383c-1.3164-11.828-3.8828-23.262-7.5586-34.195l39.441-39.777c5.2344-4.1758 6.0859-11.801 1.9102-17.043l-46.578-58.375c-4.168-5.2188-11.789-6.0977-17.012-1.918l-47.254 29.434c-9.6484-5.9844-19.949-11.023-30.797-14.938l-6.5898-56.445c0-6.6914-5.4375-12.117-12.133-12.117l-74.676 0.003906c-6.6914 0-12.117 5.4258-12.117 12.117l-6.5938 56.434c-10.445 3.7773-20.41 8.5664-29.75 14.27l-49.262-30.672c-5.2305-4.1719-12.855-3.3047-17.035 1.9336l-46.559 58.383c-4.168 5.2305-3.3164 12.855 1.918 17.023l40.633 40.961c-3.4258 10.031-5.9062 20.496-7.3398 31.297l-55.359 19.625c-6.5234 1.4922-10.605 7.9805-9.1172 14.52l16.617 72.816c1.4922 6.5156 7.9766 10.602 14.508 9.1133l57.234-6.2109c5.7891 9.1758 12.469 17.738 19.902 25.574l-19.051 55.176c-2.9062 6.0312-0.36719 13.27 5.668 16.184l67.293 32.395c6.0273 2.9023 13.27 0.37891 16.172-5.6523l30.293-47.781c6.332 0.73437 12.762 1.1602 19.297 1.1602 4.8008 0 9.5469-0.25 14.242-0.65625l30.652 48.34c2.9102 6.0312 10.152 8.5586 16.188 5.6562l67.277-32.422c6.0273-2.9023 8.5703-10.133 5.668-16.168l-18.098-52.391c8.2383-8.1406 15.609-17.148 21.984-26.875l55.848 6.0547c6.5234 1.4844 13.02-2.6016 14.516-9.1289l16.594-72.816c1.4922-6.5117-2.5664-13.012-9.0977-14.504zm4.1914 13.383-16.594 72.816c-0.74219 3.25-3.582 5.5234-6.9023 5.5234-0.52344 0-1.0586-0.058594-1.582-0.17578l-0.28906-0.070312-59.199-6.418-1.6914 2.5781c-6.1836 9.4102-13.348 18.176-21.316 26.059l-2.2539 2.2266 19.219 55.664 0.125 0.26562c1.6914 3.5117 0.20313 7.75-3.3086 9.4414l-67.277 32.426c-0.96875 0.46484-2 0.70703-3.0625 0.70703-2.75 0-5.1992-1.543-6.3984-4.0156l-0.28125-0.50781-32.293-50.934-3.0469 0.26172c-4.9844 0.42969-9.5 0.63672-13.809 0.63672-5.9961 0-12.293-0.37891-18.711-1.1289l-3.1445-0.36719-32.145 50.703-0.125 0.26562c-1.1875 2.4688-3.6328 4.0039-6.3828 4.0039-1.0625 0-2.0977-0.23828-3.0625-0.70703l-67.293-32.398c-3.5234-1.6992-5.0117-5.9414-3.3164-9.4531l0.125-0.26562 20.148-58.348-2.1055-2.2227c-7.2344-7.6289-13.723-15.973-19.297-24.797l-1.6758-2.6562-60.652 6.5859-0.28906 0.070312c-0.52344 0.11719-1.0586 0.17578-1.5859 0.17578-3.2578 0-6.1602-2.3125-6.8906-5.5l-16.625-72.812c-0.86719-3.8086 1.5234-7.6211 5.3242-8.4883l0.28906-0.066406 58.547-20.758 0.40625-3.0547c1.3711-10.312 3.7617-20.52 7.1133-30.336l1.0117-2.957-43.047-43.379-0.23047-0.1875c-1.4766-1.1758-2.4102-2.8516-2.6211-4.7305-0.21094-1.8789 0.32422-3.7266 1.5-5.2109l46.559-58.383c1.3594-1.7031 3.3867-2.6797 5.5625-2.6797 1.6133 0 3.1289 0.52734 4.3945 1.543l0.22656 0.17969 52.148 32.469 2.6484-1.6172c9.0781-5.543 18.781-10.191 28.84-13.828l2.9336-1.0586 6.9883-59.816-0.003906-0.29688c0-3.8984 3.1758-7.0781 7.0781-7.0781h74.676c3.9102 0 7.0938 3.1758 7.0938 7.0781v0.29297l6.9883 59.824 2.9336 1.0586c10.352 3.7383 20.395 8.6094 29.855 14.484l2.6602 1.6523 50.16-31.246 0.23047-0.1875c1.2578-1.0078 2.7773-1.5352 4.3828-1.5352 2.1758 0 4.1953 0.97266 5.5508 2.6641l46.578 58.375c2.4336 3.0586 1.9336 7.5312-1.1172 9.9648l-0.22656 0.17969-41.84 42.195 0.98828 2.9414c3.6133 10.746 6.0742 21.902 7.3242 33.145l0.34766 3.1406 55.125 19.531 0.28906 0.066407c1.8398 0.42187 3.4102 1.5352 4.4141 3.1328 1.0039 1.6055 1.3242 3.5 0.90625 5.3438z"></path>
  <path d="m401.52 318.72c-45.977 0-83.391 37.406-83.391 83.387 0 45.977 37.406 83.387 83.391 83.387 45.977 0 83.379-37.406 83.379-83.387 0.003906-45.98-37.402-83.387-83.379-83.387zm0 161.73c-43.273 0-78.352-35.07-78.352-78.348 0-43.266 35.074-78.348 78.352-78.348 43.273 0 78.344 35.074 78.344 78.348 0 43.277-35.07 78.348-78.344 78.348z"></path>
 </g>

      </g>
      </svg>