<?xml version="1.0" encoding="UTF-8"?>
<svg version="1.1" xmlns="http://www.w3.org/2000/svg" width="200" height="200">
<path d="M0 0 C66 0 132 0 200 0 C200 66 200 132 200 200 C134 200 68 200 0 200 C0 134 0 68 0 0 Z " fill="#FEFEFD" transform="translate(0,0)"/>
<path d="M0 0 C6.5278125 -0.1546875 6.5278125 -0.1546875 13.1875 -0.3125 C15.23360474 -0.38078003 15.23360474 -0.38078003 17.32104492 -0.45043945 C27.28405831 -0.56522925 27.28405831 -0.56522925 30.37109375 2.3203125 C32 5 32 5 31.875 8.1875 C31 11 31 11 30 13 C30.66 13 31.32 13 32 13 C33.56700442 16.13400885 33.85164561 19.63155095 33 23 C30.30166568 25.67999522 28.66301886 26.90405235 24.86206055 27.45410156 C23.71519775 27.4331543 22.56833496 27.41220703 21.38671875 27.390625 C20.13955078 27.37773438 18.89238281 27.36484375 17.60742188 27.3515625 C16.31384766 27.31804687 15.02027344 27.28453125 13.6875 27.25 C12.37458984 27.23195313 11.06167969 27.21390625 9.70898438 27.1953125 C6.47234385 27.14823409 3.23607897 27.076493 0 27 C0 18.09 0 9.18 0 0 Z " fill="#4F5255" transform="translate(78,89)"/>
<path d="M0 0 C4.3725 -0.04125 8.745 -0.0825 13.25 -0.125 C14.62317383 -0.14320801 15.99634766 -0.16141602 17.41113281 -0.18017578 C18.49749023 -0.1851709 19.58384766 -0.19016602 20.703125 -0.1953125 C21.81333008 -0.20578613 22.92353516 -0.21625977 24.06738281 -0.22705078 C26.97012672 -0.00231287 28.58112534 0.42822112 31 2 C32.92199114 4.56265486 33.01028636 5.83198949 32.8125 9.0625 C32 12 32 12 30.375 13.5625 C29.92125 14.036875 29.4675 14.51125 29 15 C29.21018166 17.73236161 29.83941345 19.6788269 31.0625 22.125 C32 24 32 24 32 27 C29.36 27 26.72 27 24 27 C23.49384702 25.73160474 22.99530901 24.46016898 22.5 23.1875 C22.2215625 22.47980469 21.943125 21.77210937 21.65625 21.04296875 C21 19 21 19 21 16 C16.71 16 12.42 16 8 16 C8 19.63 8 23.26 8 27 C5.36 27 2.72 27 0 27 C0 18.09 0 9.18 0 0 Z " fill="#4C4F52" transform="translate(114,89)"/>
<path d="M0 0 C0.73895508 0.23605957 1.47791016 0.47211914 2.23925781 0.71533203 C2.61425781 2.84033203 2.61425781 2.84033203 2.23925781 5.71533203 C0.82658648 7.41223453 -0.68958821 8.83276236 -2.35058594 10.28564453 C-4.02501108 11.77305258 -4.02501108 11.77305258 -4.76074219 14.71533203 C-3.76631104 14.71009521 -2.77187988 14.7048584 -1.74731445 14.69946289 C1.92959702 14.68141162 5.60650456 14.66989957 9.28344727 14.66040039 C10.87720396 14.65536046 12.470956 14.64852853 14.06469727 14.63989258 C16.35076034 14.62781205 18.63676248 14.62210048 20.92285156 14.61767578 C21.63952499 14.6125145 22.35619843 14.60735321 23.09458923 14.60203552 C24.80989454 14.6018394 26.52507048 14.65341196 28.23925781 14.71533203 C29.23925781 15.71533203 29.23925781 15.71533203 29.36425781 18.21533203 C29.23925781 20.71533203 29.23925781 20.71533203 28.23925781 21.71533203 C26.70442811 21.80852652 25.16533699 21.83279003 23.62768555 21.82885742 C22.64674423 21.82878189 21.66580292 21.82870636 20.65513611 21.82862854 C19.58848221 21.82346725 18.52182831 21.81830597 17.42285156 21.81298828 C15.79356468 21.81086586 15.79356468 21.81086586 14.13136292 21.80870056 C10.64646706 21.80308251 7.16163439 21.79052696 3.67675781 21.77783203 C1.32063895 21.77281936 -1.03548092 21.76825605 -3.39160156 21.76416016 C-9.18133683 21.75310722 -14.971035 21.73635154 -20.76074219 21.71533203 C-19.67130025 15.27659563 -16.04624108 12.33834747 -11.51074219 7.84033203 C-10.74632812 7.04369141 -9.98191406 6.24705078 -9.19433594 5.42626953 C-8.44796875 4.67861328 -7.70160156 3.93095703 -6.93261719 3.16064453 C-6.25295898 2.47502441 -5.57330078 1.7894043 -4.87304688 1.08300781 C-2.76074219 -0.28466797 -2.76074219 -0.28466797 0 0 Z " fill="#BBCC60" transform="translate(29.7607421875,78.28466796875)"/>
<path d="M0 0 C16.17 0 32.34 0 49 0 C47.66974609 6.65126956 44.39522461 9.23303654 39.6875 13.875 C38.91470703 14.67164062 38.14191406 15.46828125 37.34570312 16.2890625 C36.59611328 17.03671875 35.84652344 17.784375 35.07421875 18.5546875 C34.38932373 19.24030762 33.70442871 19.92592773 32.9987793 20.63232422 C31 22 31 22 28.74536133 21.71533203 C28.16939209 21.47927246 27.59342285 21.24321289 27 21 C26.125 18.875 26.125 18.875 26 16 C27.37590946 14.25834246 28.87355474 12.87624359 30.5546875 11.4296875 C32.26755138 9.95079242 32.26755138 9.95079242 33 7 C32.04109863 7.01047363 31.08219727 7.02094727 30.09423828 7.03173828 C26.54219281 7.06789328 22.99016366 7.09088393 19.43798828 7.10986328 C17.89954902 7.11993118 16.36112893 7.13358646 14.82275391 7.15087891 C12.61355867 7.17509317 10.40461605 7.18647491 8.1953125 7.1953125 C7.50567413 7.20563507 6.81603577 7.21595764 6.10549927 7.22659302 C4.40199094 7.22699478 2.69914057 7.12191026 1 7 C0.34 6.34 -0.32 5.68 -1 5 C-0.67 3.35 -0.34 1.7 0 0 Z " fill="#E4890E" transform="translate(8,104)"/>
<path d="M0 0 C10.56 0 21.12 0 32 0 C32 1.65 32 3.3 32 5 C27.71 5 23.42 5 19 5 C19 11.93 19 18.86 19 26 C17.02 26 15.04 26 13 26 C13 19.07 13 12.14 13 5 C8.71 5 4.42 5 0 5 C0 3.35 0 1.7 0 0 Z " fill="#404448" transform="translate(149,90)"/>
<path d="M0 0 C5.94 0 11.88 0 18 0 C18 1.65 18 3.3 18 5 C16.35 5.66 14.7 6.32 13 7 C13 7.66 13 8.32 13 9 C15.31 9.66 17.62 10.32 20 11 C20 12.65 20 14.3 20 16 C13.4 16 6.8 16 0 16 C-0.89552036 9.7313575 -0.83630833 6.04000459 0 0 Z " fill="#606367" transform="translate(84,94)"/>
<path d="M0 0 C8.58 0 17.16 0 26 0 C22 4 22 4 18.109375 4.390625 C16.6557344 4.36419517 15.20234932 4.31671569 13.75 4.25 C12.63238281 4.22292969 12.63238281 4.22292969 11.4921875 4.1953125 C9.66090299 4.14835649 7.83028351 4.07661652 6 4 C6.185625 5.299375 6.37125 6.59875 6.5625 7.9375 C6.87890625 10.15234375 6.87890625 10.15234375 7 12 C6.67 12.33 6.34 12.66 6 13 C5.92755947 15.01964199 5.91622812 17.04167124 5.9375 19.0625 C5.94652344 20.16722656 5.95554687 21.27195312 5.96484375 22.41015625 C5.97644531 23.26480469 5.98804687 24.11945313 6 25 C4.02 25 2.04 25 0 25 C0 16.75 0 8.5 0 0 Z " fill="#414347" transform="translate(115,90)"/>
<path d="M0 0 C3.95119422 -0.04588484 7.90171066 -0.08571688 11.85302734 -0.10986328 C13.8591136 -0.12488107 15.86511324 -0.15028981 17.87109375 -0.17578125 C19.12792969 -0.18222656 20.38476562 -0.18867187 21.6796875 -0.1953125 C22.84226074 -0.20578613 24.00483398 -0.21625977 25.20263672 -0.22705078 C28 0 28 0 30 2 C29.8125 4.0625 29.8125 4.0625 29 6 C28.01 6.33 27.02 6.66 26 7 C26 5.35 26 3.7 26 2 C25.01 2.66 24.02 3.32 23 4 C21.00708008 4.22705078 21.00708008 4.22705078 18.76953125 4.1953125 C17.96708984 4.18886719 17.16464844 4.18242188 16.33789062 4.17578125 C15.50451172 4.15902344 14.67113281 4.14226562 13.8125 4.125 C12.96751953 4.11597656 12.12253906 4.10695313 11.25195312 4.09765625 C9.16784757 4.07410703 7.08388783 4.03823647 5 4 C5 8.95 5 13.9 5 19 C3.35 19.33 1.7 19.66 0 20 C0 13.4 0 6.8 0 0 Z " fill="#43474B" transform="translate(79,90)"/>
<path d="M0 0 C6.93 0 13.86 0 21 0 C21 1.98 21 3.96 21 6 C24.96 6 28.92 6 33 6 C33 6.33 33 6.66 33 7 C28.47934572 7.049377 23.95884783 7.08570823 19.43798828 7.10986328 C17.89954902 7.11993118 16.36112893 7.13358646 14.82275391 7.15087891 C12.61355867 7.17509317 10.40461605 7.18647491 8.1953125 7.1953125 C7.50567413 7.20563507 6.81603577 7.21595764 6.10549927 7.22659302 C4.40199094 7.22699478 2.69914057 7.12191026 1 7 C0.34 6.34 -0.32 5.68 -1 5 C-0.67 3.35 -0.34 1.7 0 0 Z " fill="#F2C434" transform="translate(8,104)"/>
<path d="M0 0 C0.33 1.32 0.66 2.64 1 4 C1.61974197 3.9830307 2.23948395 3.9660614 2.87800598 3.94857788 C9.31756766 3.77427751 15.75737171 3.61437148 22.19750977 3.46289062 C24.6022252 3.4044252 27.00685376 3.34226688 29.41137695 3.27636719 C32.86393418 3.1823813 36.31658412 3.10160011 39.76953125 3.0234375 C40.84773636 2.99124115 41.92594147 2.9590448 43.03681946 2.9258728 C44.53803596 2.89561508 44.53803596 2.89561508 46.06958008 2.86474609 C47.39195427 2.83143692 47.39195427 2.83143692 48.74104309 2.79745483 C51 3 51 3 54 5 C53.01 5.33 52.02 5.66 51 6 C50.896875 7.051875 50.79375 8.10375 50.6875 9.1875 C49.83495895 13.91522763 48.49152444 16.60169584 45 19.875 C44.34 20.24625 43.68 20.6175 43 21 C42.01 20.67 41.02 20.34 40 20 C40.56589844 19.46890625 41.13179687 18.9378125 41.71484375 18.390625 C42.81505859 17.33101562 42.81505859 17.33101562 43.9375 16.25 C44.66839844 15.55390625 45.39929687 14.8578125 46.15234375 14.140625 C48.3347044 11.93701342 48.3347044 11.93701342 49 8 C33.49 8 17.98 8 2 8 C2 7.67 2 7.34 2 7 C16.52 6.67 31.04 6.34 46 6 C22.735 5.505 22.735 5.505 -1 5 C-0.67 3.35 -0.34 1.7 0 0 Z " fill="#EEE9CD" transform="translate(8,96)"/>
<path d="M0 0 C1.40958984 -0.00193359 1.40958984 -0.00193359 2.84765625 -0.00390625 C3.83636719 -0.00003906 4.82507813 0.00382812 5.84375 0.0078125 C7.32681641 0.00201172 7.32681641 0.00201172 8.83984375 -0.00390625 C9.77957031 -0.00261719 10.71929687 -0.00132813 11.6875 0 C12.55568359 0.00112793 13.42386719 0.00225586 14.31835938 0.00341797 C16.34375 0.1328125 16.34375 0.1328125 17.34375 1.1328125 C17.46875 3.6328125 17.46875 3.6328125 17.34375 6.1328125 C15.72174485 7.75481765 13.92351969 7.26272 11.6875 7.265625 C10.27791016 7.26755859 10.27791016 7.26755859 8.83984375 7.26953125 C7.85113281 7.26566406 6.86242187 7.26179688 5.84375 7.2578125 C4.85503906 7.26167969 3.86632812 7.26554687 2.84765625 7.26953125 C1.90792969 7.26824219 0.96820313 7.26695313 0 7.265625 C-0.86818359 7.26449707 -1.73636719 7.26336914 -2.63085938 7.26220703 C-4.65625 7.1328125 -4.65625 7.1328125 -5.65625 6.1328125 C-5.78125 3.6328125 -5.78125 3.6328125 -5.65625 1.1328125 C-4.03424485 -0.48919265 -2.23601969 0.002905 0 0 Z " fill="#4874B3" transform="translate(41.65625,92.8671875)"/>
<path d="M0 0 C8.91 0 17.82 0 27 0 C27 0.33 27 0.66 27 1 C18.42 1 9.84 1 1 1 C1 9.25 1 17.5 1 26 C2.98 26 4.96 26 7 26 C6.67 21.71 6.34 17.42 6 13 C9.30994713 11.34502644 12.99123 11.89915665 16.625 11.9375 C17.42679688 11.94201172 18.22859375 11.94652344 19.0546875 11.95117188 C21.03649006 11.96296832 23.01825433 11.98090395 25 12 C24.67 13.65 24.34 15.3 24 17 C20.74441735 17 17.557899 16.75706131 14.3125 16.5 C13.13300781 16.4071875 11.95351562 16.314375 10.73828125 16.21875 C9.83464844 16.1465625 8.93101563 16.074375 8 16 C8 19.63 8 23.26 8 27 C5.36 27 2.72 27 0 27 C0 18.09 0 9.18 0 0 Z " fill="#65686A" transform="translate(114,89)"/>
<path d="M0 0 C0.66 0.33 1.32 0.66 2 1 C2.36629408 5.27343092 1.40814077 7.48812804 -1 11 C-0.01 11.33 0.98 11.66 2 12 C1.67 13.65 1.34 15.3 1 17 C-4.61 17 -10.22 17 -16 17 C-16 16.34 -16 15.68 -16 15 C-15.13375 14.62875 -14.2675 14.2575 -13.375 13.875 C-7.70198167 10.72332315 -4.12532898 7.19887619 -2 1 C-1.34 0.67 -0.68 0.34 0 0 Z " fill="#B2CB40" transform="translate(26,82)"/>
<path d="M0 0 C5.94 0 11.88 0 18 0 C18.33 1.65 18.66 3.3 19 5 C18 6 18 6 16.23413086 6.11352539 C15.48526611 6.10828857 14.73640137 6.10305176 13.96484375 6.09765625 C13.15595703 6.09443359 12.34707031 6.09121094 11.51367188 6.08789062 C10.66353516 6.07951172 9.81339844 6.07113281 8.9375 6.0625 C8.08349609 6.05798828 7.22949219 6.05347656 6.34960938 6.04882812 C4.23304337 6.03700373 2.11651315 6.01906769 0 6 C0 4.02 0 2.04 0 0 Z " fill="#E3E5E6" transform="translate(121,94)"/>
<path d="M0 0 C0.33 0 0.66 0 1 0 C1 2.64 1 5.28 1 8 C1.66 8 2.32 8 3 8 C3 7.01 3 6.02 3 5 C3.99 5 4.98 5 6 5 C6 4.01 6 3.02 6 2 C7.65 1.67 9.3 1.34 11 1 C7.87172451 4.73867071 4.69826079 8.43269846 1.375 12 C0.55128906 12.8971875 0.55128906 12.8971875 -0.2890625 13.8125 C-2 15 -2 15 -4.2109375 14.6875 C-4.80132812 14.460625 -5.39171875 14.23375 -6 14 C-6.875 11.875 -6.875 11.875 -7 9 C-5.62409054 7.25834246 -4.12644526 5.87624359 -2.4453125 4.4296875 C-0.73244862 2.95079242 -0.73244862 2.95079242 0 0 Z " fill="#D89434" transform="translate(41,111)"/>
<path d="M0 0 C6.27 0 12.54 0 19 0 C19 1.65 19 3.3 19 5 C12.73 5 6.46 5 0 5 C0 3.35 0 1.7 0 0 Z " fill="#F9FBFB" transform="translate(85,105)"/>
<path d="M0 0 C9.24 0 18.48 0 28 0 C27 5 27 5 24.9375 6.8125 C24.298125 7.204375 23.65875 7.59625 23 8 C23.33 6.35 23.66 4.7 24 3 C12.615 2.505 12.615 2.505 1 2 C1 2.99 1 3.98 1 5 C4.3 5 7.6 5 11 5 C11 5.33 11 5.66 11 6 C7.37 6 3.74 6 0 6 C0 4.02 0 2.04 0 0 Z " fill="#DB942D" transform="translate(29,104)"/>
<path d="M0 0 C5.61 0 11.22 0 17 0 C17 1.65 17 3.3 17 5 C11.39 5 5.78 5 0 5 C0 3.35 0 1.7 0 0 Z " fill="#F4F5F7" transform="translate(85,94)"/>
<path d="M0 0 C10.56 0 21.12 0 32 0 C31.67 1.32 31.34 2.64 31 4 C30.01 4.495 30.01 4.495 29 5 C29 4.01 29 3.02 29 2 C19.43 2 9.86 2 0 2 C0 1.34 0 0.68 0 0 Z " fill="#FEF6D2" transform="translate(9,111)"/>
<path d="M0 0 C0.9075 0.00257812 1.815 0.00515625 2.75 0.0078125 C4.11125 0.00394531 4.11125 0.00394531 5.5 0 C7.75 0.1328125 7.75 0.1328125 8.75 1.1328125 C8.75 2.7828125 8.75 4.4328125 8.75 6.1328125 C4.79 6.1328125 0.83 6.1328125 -3.25 6.1328125 C-3.25 0.19184028 -3.25 0.19184028 0 0 Z " fill="#18478F" transform="translate(50.25,92.8671875)"/>
<path d="M0 0 C2.58949269 1.29474635 2.96035764 2.32663393 4 5 C4.25 7.625 4.25 7.625 4 10 C3.34 10.66 2.68 11.32 2 12 C-0.625 11.625 -0.625 11.625 -3 11 C-3.75 8.875 -3.75 8.875 -4 6 C-2.0625 2.6875 -2.0625 2.6875 0 0 Z " fill="#939393" transform="translate(133,72)"/>
<path d="M0 0 C6.93 0 13.86 0 21 0 C21 0.33 21 0.66 21 1 C11.595 1.495 11.595 1.495 2 2 C2 2.99 2 3.98 2 5 C12.23 5.33 22.46 5.66 33 6 C33 6.33 33 6.66 33 7 C28.47934572 7.049377 23.95884783 7.08570823 19.43798828 7.10986328 C17.89954902 7.11993118 16.36112893 7.13358646 14.82275391 7.15087891 C12.61355867 7.17509317 10.40461605 7.18647491 8.1953125 7.1953125 C7.50567413 7.20563507 6.81603577 7.21595764 6.10549927 7.22659302 C4.40199094 7.22699478 2.69914057 7.12191026 1 7 C0.34 6.34 -0.32 5.68 -1 5 C-0.67 3.35 -0.34 1.7 0 0 Z " fill="#E4C064" transform="translate(8,104)"/>
<path d="M0 0 C1.23556641 0.01740234 1.23556641 0.01740234 2.49609375 0.03515625 C3.32238281 0.04417969 4.14867187 0.05320312 5 0.0625 C5.63808594 0.07410156 6.27617188 0.08570312 6.93359375 0.09765625 C6.93359375 2.40765625 6.93359375 4.71765625 6.93359375 7.09765625 C3.63359375 7.09765625 0.33359375 7.09765625 -3.06640625 7.09765625 C-3.10894981 5.09810879 -3.10721408 3.09723989 -3.06640625 1.09765625 C-2.06640625 0.09765625 -2.06640625 0.09765625 0 0 Z " fill="#82B55D" transform="translate(30.06640625,92.90234375)"/>
<path d="M0 0 C4.55555556 0.55555556 4.55555556 0.55555556 6 2 C6.1875 4.4375 6.1875 4.4375 6 7 C5.34 7.66 4.68 8.32 4 9 C-0.55555556 8.44444444 -0.55555556 8.44444444 -2 7 C-2.1875 4.5625 -2.1875 4.5625 -2 2 C-1.34 1.34 -0.68 0.68 0 0 Z " fill="#909091" transform="translate(176,75)"/>
<path d="M0 0 C4.55555556 0.55555556 4.55555556 0.55555556 6 2 C6.1875 4.4375 6.1875 4.4375 6 7 C5.34 7.66 4.68 8.32 4 9 C-0.55555556 8.44444444 -0.55555556 8.44444444 -2 7 C-2.1875 4.5625 -2.1875 4.5625 -2 2 C-1.34 1.34 -0.68 0.68 0 0 Z " fill="#909091" transform="translate(92,75)"/>
<path d="M0 0 C1.51400391 0.01740234 1.51400391 0.01740234 3.05859375 0.03515625 C4.07050781 0.04417969 5.08242188 0.05320312 6.125 0.0625 C7.29869141 0.07990234 7.29869141 0.07990234 8.49609375 0.09765625 C8.49609375 0.42765625 8.49609375 0.75765625 8.49609375 1.09765625 C5.19609375 1.09765625 1.89609375 1.09765625 -1.50390625 1.09765625 C-1.17390625 2.41765625 -0.84390625 3.73765625 -0.50390625 5.09765625 C5.76609375 5.42765625 12.03609375 5.75765625 18.49609375 6.09765625 C18.49609375 6.42765625 18.49609375 6.75765625 18.49609375 7.09765625 C15.01694434 7.12653439 11.53782544 7.14441312 8.05859375 7.16015625 C6.56875977 7.17272461 6.56875977 7.17272461 5.04882812 7.18554688 C4.10458984 7.18876953 3.16035156 7.19199219 2.1875 7.1953125 C0.87567749 7.20316772 0.87567749 7.20316772 -0.46264648 7.21118164 C-2.50390625 7.09765625 -2.50390625 7.09765625 -3.50390625 6.09765625 C-3.62890625 3.59765625 -3.62890625 3.59765625 -3.50390625 1.09765625 C-2.50390625 0.09765625 -2.50390625 0.09765625 0 0 Z " fill="#607F9E" transform="translate(39.50390625,92.90234375)"/>
<path d="M0 0 C0.66 0.99 1.32 1.98 2 3 C4.90613434 3.51146198 4.90613434 3.51146198 8.3203125 3.51171875 C10.20556641 3.56489258 10.20556641 3.56489258 12.12890625 3.61914062 C13.44761719 3.64169922 14.76632813 3.66425781 16.125 3.6875 C17.46487759 3.72066529 18.80472311 3.75515422 20.14453125 3.79101562 C23.4296033 3.87373327 26.71440032 3.94280693 30 4 C30 4.33 30 4.66 30 5 C19.44 5 8.88 5 -2 5 C-1 1 -1 1 0 0 Z " fill="#D5E5F8" transform="translate(27,88)"/>
<path d="M0 0 C1.99954746 -0.04254356 4.00041636 -0.04080783 6 0 C7 1 7 1 7.09765625 2.84765625 C7.06510417 4.8984375 7.03255208 6.94921875 7 9 C6.34 9 5.68 9 5 9 C5 6.69 5 4.38 5 2 C4.01 2 3.02 2 2 2 C2 4.31 2 6.62 2 9 C1.34 9 0.68 9 0 9 C0 6.03 0 3.06 0 0 Z " fill="#9A9B9A" transform="translate(104,75)"/>
<path d="M0 0 C2.97 0 5.94 0 9 0 C8.67 1.32 8.34 2.64 8 4 C5.03 4 2.06 4 -1 4 C-0.67 2.68 -0.34 1.36 0 0 Z " fill="#F9D31E" transform="translate(10,105)"/>
<path d="M0 0 C0.66 0 1.32 0 2 0 C2.33 1.32 2.66 2.64 3 4 C4.32 3.34 5.64 2.68 7 2 C6.67 3.98 6.34 5.96 6 8 C5.01 8 4.02 8 3 8 C3 7.34 3 6.68 3 6 C1.68 6.33 0.36 6.66 -1 7 C-1.04254356 5.00045254 -1.04080783 2.99958364 -1 1 C-0.67 0.67 -0.34 0.34 0 0 Z " fill="#56585C" transform="translate(103,92)"/>
<path d="M0 0 C0.6875 1.6875 0.6875 1.6875 1 4 C-0.66226765 7.5869986 -2.53087033 10.04861456 -6 12 C-6.99 11.67 -7.98 11.34 -9 11 C-8.43410156 10.45730469 -7.86820313 9.91460937 -7.28515625 9.35546875 C-6.55167969 8.64003906 -5.81820312 7.92460938 -5.0625 7.1875 C-3.96615234 6.12595703 -3.96615234 6.12595703 -2.84765625 5.04296875 C-0.79165354 3.04463837 -0.79165354 3.04463837 0 0 Z " fill="#F8E3C7" transform="translate(57,105)"/>
<path d="M0 0 C6.93 0 13.86 0 21 0 C21 0.33 21 0.66 21 1 C11.595 1.495 11.595 1.495 2 2 C1.67 2.99 1.34 3.98 1 5 C0.34 5 -0.32 5 -1 5 C-0.67 3.35 -0.34 1.7 0 0 Z " fill="#EAD35D" transform="translate(8,104)"/>
<path d="M0 0 C0 0.66 0 1.32 0 2 C-0.66 2 -1.32 2 -2 2 C-2 4.31 -2 6.62 -2 9 C-2.99 9 -3.98 9 -5 9 C-5 6.36 -5 3.72 -5 1 C-2 0 -2 0 0 0 Z " fill="#ACADAC" transform="translate(148,75)"/>
<path d="M0 0 C2.97 0 5.94 0 9 0 C9 0.99 9 1.98 9 3 C6.03 3 3.06 3 0 3 C0 2.01 0 1.02 0 0 Z " fill="#EF970F" transform="translate(30,106)"/>
<path d="M0 0 C0.99 0.33 1.98 0.66 3 1 C2.67 2.65 2.34 4.3 2 6 C3.32 6.99 4.64 7.98 6 9 C4.02 9 2.04 9 0 9 C-0.87890625 2.84765625 -0.87890625 2.84765625 -1 1 C-0.67 0.67 -0.34 0.34 0 0 Z " fill="#FBF0DA" transform="translate(33,118)"/>
<path d="M0 0 C0.33 0.66 0.66 1.32 1 2 C0.67 2.99 0.34 3.98 0 5 C1.65 5 3.3 5 5 5 C4.01 6.485 4.01 6.485 3 8 C1.68 7.67 0.36 7.34 -1 7 C-1.625 4.625 -1.625 4.625 -2 2 C-1.34 1.34 -0.68 0.68 0 0 Z " fill="#D49948" transform="translate(36,118)"/>
<path d="M0 0 C1.32 0 2.64 0 4 0 C4 1.65 4 3.3 4 5 C2.35 5 0.7 5 -1 5 C-0.67 3.35 -0.34 1.7 0 0 Z " fill="#E28911" transform="translate(37,118)"/>
<path d="M0 0 C1.64574566 -0.02688151 3.29161413 -0.04634123 4.9375 -0.0625 C5.85402344 -0.07410156 6.77054688 -0.08570312 7.71484375 -0.09765625 C10 0 10 0 11 1 C11.04063832 2.66617115 11.042721 4.33388095 11 6 C10.34 6 9.68 6 9 6 C8.67 4.68 8.34 3.36 8 2 C5.36 1.67 2.72 1.34 0 1 C0 0.67 0 0.34 0 0 Z " fill="#385782" transform="translate(48,93)"/>
<path d="M0 0 C0 0.66 0 1.32 0 2 C-3.3 2 -6.6 2 -10 2 C-10 1.34 -10 0.68 -10 0 C-6.30581799 -1.231394 -3.7943739 -0.64432764 0 0 Z " fill="#B5C846" transform="translate(20,97)"/>
<path d="M0 0 C0.66 0 1.32 0 2 0 C2.185625 0.9590625 2.185625 0.9590625 2.375 1.9375 C2.684375 2.9584375 2.684375 2.9584375 3 4 C3.66 4.33 4.32 4.66 5 5 C5.33 4.34 5.66 3.68 6 3 C6 3.99 6 4.98 6 6 C5.01 6 4.02 6 3 6 C3 6.99 3 7.98 3 9 C2.34 9 1.68 9 1 9 C0.67 6.03 0.34 3.06 0 0 Z " fill="#E08A1A" transform="translate(41,110)"/>
<path d="M0 0 C0.33 1.32 0.66 2.64 1 4 C-3.29 4 -7.58 4 -12 4 C-12 3.67 -12 3.34 -12 3 C-8.7 3 -5.4 3 -2 3 C-2 2.34 -2 1.68 -2 1 C-1.34 0.67 -0.68 0.34 0 0 Z " fill="#3C3F42" transform="translate(99,100)"/>
<path d="M0 0 C0.66 0.99 1.32 1.98 2 3 C5.06556598 3.73343428 5.06556598 3.73343428 8 4 C8 4.33 8 4.66 8 5 C4.7 5 1.4 5 -2 5 C-1 1 -1 1 0 0 Z " fill="#E7F4C6" transform="translate(27,88)"/>
<path d="M0 0 C1.32 0 2.64 0 4 0 C4 1.65 4 3.3 4 5 C2.68 5 1.36 5 0 5 C0 3.35 0 1.7 0 0 Z " fill="#F5F6F6" transform="translate(176,77)"/>
<path d="M0 0 C1.32 0 2.64 0 4 0 C4 1.65 4 3.3 4 5 C2.68 5 1.36 5 0 5 C0 3.35 0 1.7 0 0 Z " fill="#F3F3F3" transform="translate(131,77)"/>
<path d="M0 0 C1.32 0 2.64 0 4 0 C4 1.65 4 3.3 4 5 C2.68 5 1.36 5 0 5 C0 3.35 0 1.7 0 0 Z " fill="#F5F6F5" transform="translate(92,77)"/>
<path d="M0 0 C0.99 0.66 1.98 1.32 3 2 C1 4 1 4 -1.3828125 4.1953125 C-2.28773437 4.17210938 -3.19265625 4.14890625 -4.125 4.125 C-5.49011719 4.09792969 -5.49011719 4.09792969 -6.8828125 4.0703125 C-7.58148438 4.04710938 -8.28015625 4.02390625 -9 4 C-9 3.67 -9 3.34 -9 3 C-5.92382812 2.70703125 -5.92382812 2.70703125 -2.84765625 2.4140625 C-2.23792969 2.27742188 -1.62820312 2.14078125 -1 2 C-0.67 1.34 -0.34 0.68 0 0 Z " fill="#F7CE31" transform="translate(19,106)"/>
<path d="M0 0 C1.32 0.66 2.64 1.32 4 2 C3.34 3.65 2.68 5.3 2 7 C1.01 7 0.02 7 -1 7 C-0.67 6.67 -0.34 6.34 0 6 C0.04080783 4.00041636 0.04254356 1.99954746 0 0 Z " fill="#EAEFCC" transform="translate(31,78)"/>
</svg>
